<?xml version="1.0" standalone="no"?>
<!DOCTYPE svg PUBLIC "-//W3C//DTD SVG 20010904//EN"
 "http://www.w3.org/TR/2001/REC-SVG-20010904/DTD/svg10.dtd">
<svg version="1.0" xmlns="http://www.w3.org/2000/svg"
 width="145.000000pt" height="300.000000pt" viewBox="0 0 145.000000 300.000000"
 preserveAspectRatio="xMidYMid meet">

<g transform="translate(0.000000,300.000000) scale(0.100000,-0.100000)"
fill="#000000" stroke="none">
<path d="M330 2926 l0 -63 55 -37 55 -36 0 -214 0 -214 74 -51 c41 -28 77 -51
80 -51 3 0 6 92 6 205 0 113 3 205 6 205 4 0 28 -16 54 -35 26 -19 51 -35 54
-35 4 0 6 28 4 62 l-3 63 -190 132 c-104 73 -191 133 -192 133 -2 0 -3 -29 -3
-64z"/>
<path d="M933 2842 l-143 -116 0 -248 c0 -137 2 -248 5 -248 3 0 68 50 145
112 l140 112 0 74 c0 84 8 83 -81 10 -26 -21 -50 -38 -53 -38 -3 0 -6 45 -6
100 l0 100 70 57 70 57 0 73 c0 40 -1 73 -2 72 -2 0 -67 -53 -145 -117z"/>
<path d="M1205 2414 c-132 -96 -279 -204 -327 -239 l-88 -65 0 -1046 c0 -726
3 -1045 11 -1042 5 2 154 107 329 233 l319 230 1 1053 c0 578 -1 1052 -2 1051
-2 0 -111 -79 -243 -175z m78 -615 c-1 -78 -3 -142 -5 -143 -2 -2 -70 -53
-151 -114 -82 -62 -153 -112 -158 -112 -5 0 -9 60 -9 138 l0 137 153 117 c83
64 157 117 162 117 6 1 9 -51 8 -140z m0 -770 c-1 -78 -3 -142 -5 -143 -2 -1
-69 -53 -150 -114 -81 -62 -152 -112 -158 -112 -6 0 -10 49 -10 138 l0 137
153 117 c83 64 157 117 162 117 6 1 9 -51 8 -140z"/>
<path d="M10 2321 l0 -260 230 -156 c127 -86 230 -160 230 -165 0 -5 -27 -52
-61 -104 l-61 -96 -169 116 -169 115 0 -263 0 -263 50 -34 c28 -19 50 -37 50
-40 0 -3 -23 -40 -50 -81 l-50 -75 0 -266 0 -267 233 -158 c127 -87 287 -195
354 -242 l123 -83 0 263 0 264 -240 162 -239 162 51 81 c31 48 56 78 64 75 7
-3 89 -57 182 -120 94 -64 173 -116 176 -116 3 0 6 116 6 258 l0 259 -69 48
-70 47 56 87 c30 47 61 93 69 102 11 12 14 67 14 275 l-1 259 -345 235 c-190
129 -350 237 -355 238 -5 2 -9 -101 -9 -257z"/>
</g>
</svg>
